#!OML:ASF F:\VICON\USERDATA\INSTALL\rory3\rory3.ASF
:FULLY-SPECIFIED
:DEGREES
1
root 2.9372 17.2381 36.8005 -8.32227 -3.09833 7.11889
lowerback 23.2964 -1.64817 -4.37798
upperback 4.01408 -2.6908 5.71112
thorax -8.04724 -1.12105 9.72156
lowerneck -2.97323 -10.6613 -7.54329
upperneck 34.7812 -12.7769 -6.13194
head 12.0759 -7.37417 -2.42116
rclavicle 7.51406e-014 -6.04305e-014
rhumerus -40.4873 -48.437 -41.9366
rradius 41.3468
rwrist -46.7817
rhand -20.1768 -11.9993
rfingers 7.12502
rthumb 6.16911 -41.8895
lclavicle 7.51406e-014 -6.04305e-014
lhumerus -45.2755 8.372 80.6857
lradius 57.0801
lwrist 11.2012
lhand -11.5182 50.9128
lfingers 7.12502
lthumb 14.5213 80.3846
rfemur -31.0429 6.73486 5.55124
rtibia 31.631
rfoot -8.68576 -16.148
rtoes -0.586614
lfemur 0.478358 -0.598771 -30.5127
ltibia 39.4878
lfoot -23.0295 -0.495695
ltoes -15.2978
2
root 2.98986 17.2549 36.6814 -8.43668 -3.19394 7.28659
lowerback 23.2972 -1.66235 -4.70214
upperback 3.98264 -2.79478 5.65868
thorax -8.04784 -1.1629 9.88568
lowerneck -3.18753 -10.6348 -7.581
upperneck 35.0009 -12.7252 -6.13353
head 12.2139 -7.35898 -2.44228
rclavicle 2.98177e-014 -1.90833e-014
rhumerus -41.752 -47.8488 -41.7015
rradius 43.1169
rwrist -50.412
rhand -21.099 -12.7548
rfingers 7.12502
rthumb 5.27876 -42.669
lclavicle 2.98177e-014 -1.90833e-014
lhumerus -45.6649 8.24598 80.7319
lradius 56.7085
lwrist 10.7027
lhand -11.2316 51.4925
lfingers 7.12502
lthumb 14.7974 80.9442
rfemur -30.7757 6.44227 5.41082
rtibia 31.3043
rfoot -9.58185 -16.7847
rtoes -1.13855
lfemur 0.853239 -0.822403 -30.9926
ltibia 38.2353
lfoot -23.1596 0.0971079
ltoes -14.7498
3
root 3.04786 17.2711 36.5494 -8.24893 -3.0464 7.39804
lowerback 23.1968 -1.75467 -4.76503
upperback 3.89113 -2.93643 5.55876
thorax -8.0715 -1.2263 9.84453
lowerneck -3.59899 -10.6207 -7.46209
upperneck 35.0893 -12.7465 -5.95649
head 12.3352 -7.33319 -2.43469
rclavicle 1.90833e-014 3.18055e-015
rhumerus -43.0785 -48.2465 -41.0751
rradius 44.3937
rwrist -52.9388
rhand -19.1055 -13.0361
rfingers 7.12502
rthumb 7.20334 -42.8935
lclavicle 1.90833e-014 3.18055e-015
lhumerus -45.8961 7.93237 80.8219
lradius 56.262
lwrist 10.038
lhand -10.6649 51.6855
lfingers 7.12502
lthumb 15.3433 81.0963
rfemur -30.6178 5.54714 5.36572
rtibia 30.7977
rfoot -10.229 -17.7689
rtoes -1.45895
lfemur 0.596951 -1.22428 -31.4059
ltibia 37.5055
lfoot -23.2898 0.405867
ltoes -13.7585
4
root 3.08385 17.2991 36.445 -8.50683 -3.74699 6.73388
lowerback 23.0156 -1.58701 -4.37936
upperback 4.17061 -2.6201 5.64012
thorax -7.74321 -1.11073 9.58792
lowerneck -3.64221 -10.6869 -6.99177
upperneck 34.7961 -12.9162 -5.92393
head 12.1758 -7.34834 -2.49214
rclavicle -1.98785e-015 1.59028e-014
rhumerus -44.1863 -48.9834 -40.602
rradius 45.4883
rwrist -55.347
rhand -19.2922 -13.3727
rfingers 7.12502
rthumb 7.02308 -43.2362
lclavicle -1.98785e-015 1.59028e-014
lhumerus -45.93 7.29066 80.9114
lradius 55.6019
lwrist 9.26653
lhand -10.3159 51.3487
lfingers 7.12502
lthumb 15.6794 80.7334
rfemur -30.1955 5.75056 6.4834
rtibia 30.5365
rfoot -11.3608 -19.576
rtoes -0.840453
lfemur 0.837527 -0.765384 -30.6869
ltibia 36.8703
lfoot -23.5127 0.493816
ltoes -12.9003
5
root 3.10602 17.3181 36.2961 -8.60422 -4.57696 5.84425
lowerback 23.3523 -1.39533 -4.05857
upperback 4.23596 -2.28258 5.83219
thorax -7.91724 -0.947446 9.54632
lowerneck -3.95739 -10.6986 -6.43953
upperneck 35.0039 -12.904 -6.24456
head 12.2435 -7.31701 -2.7232
rclavicle 0 -5.08889e-014
rhumerus -44.8849 -49.035 -40.7154
rradius 46.7861
rwrist -58.1369
rhand -21.8302 -13.0526
rfingers 7.12502
rthumb 4.57269 -42.9833
lclavicle 0 -5.08889e-014
lhumerus -46.0498 6.77252 80.8508
lradius 54.8211
lwrist 8.5522
lhand -10.1956 50.8021
lfingers 7.12502
lthumb 15.7953 80.1777
rfemur -30.1022 6.3305 7.88338
rtibia 30.3337
rfoot -12.4837 -21.8664
rtoes 2.50423
lfemur 0.335529 -0.16261 -29.5827
ltibia 36.9917
lfoot -23.4706 0.404698
ltoes -11.7038
6
root 3.15067 17.3397 36.1787 -8.74516 -4.64434 6.0166
lowerback 23.5352 -1.34203 -4.1181
upperback 3.4689 -2.21666 5.76426
thorax -8.88601 -0.839427 9.54647
lowerneck -1.29376 -10.6125 -7.46183
upperneck 34.6955 -13.0128 -5.7619
head 11.7324 -7.44927 -2.19724
rclavicle 1.59028e-014 -9.54166e-015
rhumerus -47.6751 -47.5287 -38.771
rradius 48.3026
rwrist -60.6071
rhand -19.7343 -13.4831
rfingers 7.12502
rthumb 6.59636 -43.3604
lclavicle 1.59028e-014 -9.54166e-015
lhumerus -48.1031 5.89217 81.2069
lradius 54.55
lwrist 7.82653
lhand -10.2116 50.0438
lfingers 7.12502
lthumb 15.7799 79.4206
rfemur -29.912 4.91417 8.24093
rtibia 30.8438
rfoot -13.5308 -22.8146
rtoes 5.99502
lfemur 0.0210484 0.065399 -29.8703
ltibia 37.095
lfoot -23.1829 0.24934
ltoes -10.4941
7
root 3.17873 17.3506 35.9873 -8.29552 -5.04895 5.15927
lowerback 23.9108 -1.35839 -3.62756
upperback 3.04982 -2.0777 6.03131
thorax -9.59342 -0.734658 9.58098
lowerneck -0.633884 -10.5455 -7.71269
upperneck 34.5569 -12.9905 -5.63352
head 11.5831 -7.46105 -2.05723
rclavicle 4.77083e-015 0
rhumerus -48.6595 -46.9213 -38.4427
rradius 49.6884
rwrist -62.4512
rhand -18.2678 -13.9945
rfingers 7.12502
rthumb 8.01191 -43.8227
lclavicle 4.77083e-015 0
lhumerus -49.0149 5.65595 81.3135
lradius 54.0476
lwrist 7.06777
lhand -10.7345 48.8151
lfingers 7.12502
lthumb 15.2763 78.231
rfemur -30.7711 4.3582 9.72851
rtibia 31.8231
rfoot -13.9498 -24.4927
rtoes 9.04631
lfemur -1.63198 0.248217 -28.8373
ltibia 37.6052
lfoot -22.3883 -0.0642776
ltoes -9.81288
8
root 3.23279 17.3523 35.8684 -8.38676 -4.52119 6.64884
lowerback 23.5286 -1.4723 -4.87612
upperback 3.15206 -2.60781 5.42484
thorax -9.14413 -0.982546 9.73884
lowerneck -0.85327 -10.5722 -7.54425
upperneck 34.3875 -13.0457 -5.57565
head 11.5442 -7.45995 -2.07198
rclavicle 3.97569e-016 6.36111e-015
rhumerus -49.177 -47.3777 -38.4893
rradius 50.9369
rwrist -63.6249
rhand -16.888 -14.3117
rfingers 7.12502
rthumb 9.34339 -44.0846
lclavicle 3.97569e-016 6.36111e-015
lhumerus -49.0317 5.4199 81.2054
lradius 53.1422
lwrist 6.33942
lhand -11.0798 48.2426
lfingers 7.12502
lthumb 14.9436 77.6835
rfemur -31.0842 1.53159 8.67375
rtibia 33.4431
rfoot -13.5607 -24.1813
rtoes 9.95884
lfemur -2.19258 -0.148516 -30.7684
ltibia 37.7873
lfoot -21.8576 -0.0276685
ltoes -9.29581
9
root 3.26784 17.3613 35.7456 -8.69755 -4.56593 7.11392
lowerback 23.493 -1.47388 -5.42453
upperback 3.31231 -2.77756 5.16728
thorax -8.8961 -1.07032 9.80155
lowerneck -0.689002 -10.4965 -7.78656
upperneck 34.0845 -13.0619 -5.09578
head 11.4513 -7.44362 -1.8397
rclavicle 1.51076e-014 2.54444e-014
rhumerus -49.6538 -47.4005 -38.6626
rradius 52.2744
rwrist -64.5878
rhand -16.5839 -14.1463
rfingers 7.12502
rthumb 9.63685 -43.9059
lclavicle 1.51076e-014 2.54444e-014
lhumerus -49.1753 5.2487 81.0676
lradius 52.3674
lwrist 5.74833
lhand -10.8809 47.8368
lfingers 7.12502
lthumb 15.1352 77.2634
rfemur -31.1573 0.0993214 8.70931
rtibia 35.2195
rfoot -13.9775 -24.0838
rtoes 10.7538
lfemur -2.64974 -0.0765609 -31.3221
ltibia 38.2631
lfoot -21.5687 -0.311026
ltoes -8.85743
10
root 3.29246 17.3742 35.6278 -9.35594 -5.05257 6.72287
lowerback 23.5853 -1.42628 -5.41657
upperback 3.79347 -2.71931 5.2186
thorax -8.41305 -1.08876 9.81582
lowerneck -0.876254 -10.4134 -7.91252
upperneck 33.7969 -12.9917 -4.80143
head 11.4046 -7.39282 -1.70728
rclavicle -1.19271e-015 -1.27222e-014
rhumerus -49.6429 -47.1787 -39.3237
rradius 53.8407
rwrist -65.7265
rhand -17.6067 -13.4391
rfingers 7.12502
rthumb 8.64989 -43.2418
lclavicle -1.19271e-015 -1.27222e-014
lhumerus -49.1398 5.39374 80.883
lradius 51.7043
lwrist 5.40711
lhand -10.5781 47.508
lfingers 7.12502
lthumb 15.4269 76.9123
rfemur -30.7937 -0.474853 9.69956
rtibia 37.1047
rfoot -14.2449 -24.0707
rtoes 10.9872
lfemur -2.59307 0.439547 -30.7793
ltibia 38.5779
lfoot -21.3319 -0.579997
ltoes -9.57825
11
root 3.31668 17.3714 35.4598 -9.05475 -5.3953 6.83156
lowerback 24.0156 -1.2963 -5.75246
upperback 3.42646 -2.65643 5.1091
thorax -9.05436 -0.997764 9.92904
lowerneck -0.611142 -10.3423 -7.67517
upperneck 33.3989 -12.9534 -4.74912
head 11.1739 -7.34638 -1.67754
rclavicle -3.97569e-015 -3.02153e-014
rhumerus -50.4957 -46.6861 -39.2062
rradius 55.4103
rwrist -66.8683
rhand -18.3274 -12.6587
rfingers 7.12502
rthumb 7.95437 -42.489
lclavicle -3.97569e-015 -3.02153e-014
lhumerus -49.7051 5.1606 80.6644
lradius 51.1145
lwrist 5.15824
lhand -10.4021 47.2354
lfingers 7.12502
lthumb 15.5964 76.6267
rfemur -31.7386 -0.92317 10.0349
rtibia 39.0525
rfoot -13.6135 -24.2062
rtoes 10.6485
lfemur -3.92857 0.656956 -30.7924
ltibia 38.9464
lfoot -20.8217 -0.933566
ltoes -8.69394
12
root 3.35011 17.3931 35.315 -9.12834 -6.0038 5.8488
lowerback 24.2749 -1.36949 -4.98773
upperback 3.51089 -2.54928 5.25828
thorax -9.14793 -0.967827 9.63001
lowerneck -1.0134 -10.2991 -7.3818
upperneck 33.4189 -12.8463 -4.92
head 11.2151 -7.28516 -1.79822
rclavicle 2.90226e-014 1.11319e-014
rhumerus -50.9876 -46.7745 -39.1895
rradius 56.754
rwrist -67.3025
rhand -17.8655 -12.4731
rfingers 7.12502
rthumb 8.40015 -42.286
lclavicle 2.90226e-014 1.11319e-014
lhumerus -49.8715 5.25821 80.3341
lradius 50.3855
lwrist 4.91352
lhand -10.0957 47.3415
lfingers 7.12502
lthumb 15.8915 76.7094
rfemur -31.7858 -1.21867 11.59
rtibia 40.7919
rfoot -12.9404 -23.7103
rtoes 8.97508
lfemur -4.56556 0.953065 -29.6412
ltibia 39.3412
lfoot -20.5837 -1.14874
ltoes -6.60331
13
root 3.39875 17.4027 35.1895 -9.02137 -5.87059 6.83299
lowerback 23.9266 -1.49562 -5.89757
upperback 3.58274 -2.98074 4.85581
thorax -8.7704 -1.17688 9.79771
lowerneck -2.02164 -10.2618 -7.27823
upperneck 33.9781 -12.6806 -5.11713
head 11.6078 -7.22167 -1.97023
rclavicle 1.86858e-014 -2.54444e-014
rhumerus -51.0199 -47.2577 -39.3387
rradius 57.8668
rwrist -67.3315
rhand -17.3898 -12.4193
rfingers 7.12502
rthumb 8.85917 -42.2133
lclavicle 1.86858e-014 -2.54444e-014
lhumerus -49.7721 5.78608 79.8932
lradius 49.5676
lwrist 4.87715
lhand -10.0424 47.2432
lfingers 7.12502
lthumb 15.9428 76.607
rfemur -32.2713 -2.76386 10.7405
rtibia 42.9764
rfoot -12.4162 -22.2574
rtoes 8.49019
lfemur -5.22764 0.740877 -30.9432
ltibia 39.342
lfoot -20.2129 -1.07926
ltoes -4.38136
14
root 3.41962 17.4319 35.0738 -9.38995 -6.62306 6.02706
lowerback 24.1298 -1.4425 -5.48423
upperback 3.65135 -2.79771 5.03595
thorax -8.84976 -1.09829 9.72007
lowerneck -2.01152 -10.1481 -7.24828
upperneck 34.2171 -12.4859 -5.28536
head 11.6854 -7.15666 -2.02792
rclavicle 7.11649e-014 -4.13472e-014
rhumerus -51.7707 -47.6511 -38.4623
rradius 58.6543
rwrist -67.3202
rhand -16.9453 -12.7099
rfingers 7.12502
rthumb 9.28814 -42.4853
lclavicle 7.11649e-014 -4.13472e-014
lhumerus -50.1968 6.04648 79.5669
lradius 48.6885
lwrist 4.8797
lhand -10.1661 47.1773
lfingers 7.12502
lthumb 15.8237 76.5507
rfemur -31.9438 -2.50929 11.9987
rtibia 45.0224
rfoot -12.9176 -22.2232
rtoes 9.8875
lfemur -5.21807 1.07798 -29.982
ltibia 39.2772
lfoot -19.9115 -0.957972
ltoes -3.38893
